<mxfile>
    <diagram id="kjaAdO7Afj4jtU5VhluR" name="Page-1">
        <mxGraphModel dx="819" dy="694" grid="1" gridSize="10" guides="1" tooltips="1" connect="1" arrows="1" fold="1" page="1" pageScale="1" pageWidth="827" pageHeight="1169" background="#ffffff" math="0" shadow="0">
            <root>
                <mxCell id="0"/>
                <mxCell id="1" parent="0"/>
                <mxCell id="3" value="TMDP API" style="rounded=1;labelBackgroundColor=#ffffff;" vertex="1" parent="1">
                    <mxGeometry x="188" y="370" width="110" height="50" as="geometry"/>
                </mxCell>
                <mxCell id="5" value="Movieworld" style="rounded=1;whiteSpace=wrap;html=1;labelBackgroundColor=#ffffff;fontColor=#000000;" vertex="1" parent="1">
                    <mxGeometry x="300" y="80" width="110" height="50" as="geometry"/>
                </mxCell>
                <mxCell id="6" value="Movieworld-Server" style="rounded=1;whiteSpace=wrap;html=1;labelBackgroundColor=#ffffff;fontColor=#000000;" vertex="1" parent="1">
                    <mxGeometry x="412" y="370" width="110" height="50" as="geometry"/>
                </mxCell>
                <mxCell id="7" value="" style="shape=flexArrow;endArrow=classic;html=1;fontColor=#000000;" edge="1" parent="1">
                    <mxGeometry width="50" height="50" relative="1" as="geometry">
                        <mxPoint x="367" y="140" as="sourcePoint"/>
                        <mxPoint x="470" y="360" as="targetPoint"/>
                    </mxGeometry>
                </mxCell>
                <mxCell id="8" value="" style="shape=flexArrow;endArrow=classic;html=1;fontColor=#000000;" edge="1" parent="1">
                    <mxGeometry width="50" height="50" relative="1" as="geometry">
                        <mxPoint x="350" y="140" as="sourcePoint"/>
                        <mxPoint x="240" y="360" as="targetPoint"/>
                    </mxGeometry>
                </mxCell>
                <mxCell id="12" value="&lt;br&gt;&lt;br&gt;&lt;br&gt;" style="text;strokeColor=none;fillColor=none;verticalAlign=middle;overflow=hidden;labelBackgroundColor=none;html=1;align=left;" vertex="1" parent="1">
                    <mxGeometry x="470" y="140" width="290" height="130" as="geometry"/>
                </mxCell>
                <mxCell id="13" value="&lt;ul&gt;&lt;li&gt;&lt;span style=&quot;background-color: rgb(248 , 249 , 250)&quot;&gt;GET /&lt;/span&gt;configuration&lt;/li&gt;&lt;li&gt;&lt;span style=&quot;background-color: rgb(248 , 249 , 250)&quot;&gt;GET /&lt;/span&gt;movie/now_playing&lt;/li&gt;&lt;li&gt;GET /movie/:id&lt;/li&gt;&lt;li&gt;GET /movie/popular&lt;/li&gt;&lt;li&gt;GET /movie/top_rated&lt;/li&gt;&lt;li&gt;GET /genre/movie/list&lt;/li&gt;&lt;li&gt;GET /discover/movie&lt;/li&gt;&lt;li&gt;GET /search/movie&lt;/li&gt;&lt;/ul&gt;" style="text;strokeColor=none;fillColor=none;html=1;whiteSpace=wrap;verticalAlign=middle;overflow=hidden;labelBackgroundColor=#ffffff;fontColor=#000000;" vertex="1" parent="1">
                    <mxGeometry x="60" y="140" width="200" height="190" as="geometry"/>
                </mxCell>
                <mxCell id="14" value="&lt;ul&gt;&lt;li&gt;&lt;span style=&quot;background-color: rgb(248 , 249 , 250)&quot;&gt;POST /movie/:movieId/like&lt;/span&gt;&lt;br&gt;&lt;/li&gt;&lt;li&gt;&lt;span style=&quot;background-color: rgb(248 , 249 , 250)&quot;&gt;DELETE /movie/:movieId/like&lt;/span&gt;&lt;br&gt;&lt;/li&gt;&lt;li&gt;&lt;span style=&quot;background-color: rgb(248 , 249 , 250)&quot;&gt;GET /likes&lt;/span&gt;&lt;br&gt;&lt;/li&gt;&lt;li&gt;&lt;span style=&quot;background-color: rgb(248 , 249 , 250)&quot;&gt;GET /movie/:movieId&lt;br&gt;&lt;/span&gt;&lt;/li&gt;&lt;/ul&gt;" style="text;strokeColor=none;fillColor=none;html=1;whiteSpace=wrap;verticalAlign=middle;overflow=hidden;labelBackgroundColor=#ffffff;fontColor=#000000;" vertex="1" parent="1">
                    <mxGeometry x="450" y="190" width="200" height="100" as="geometry"/>
                </mxCell>
            </root>
        </mxGraphModel>
    </diagram>
</mxfile>